<?xml version="1.0" standalone="no"?>
<!DOCTYPE svg PUBLIC "-//W3C//DTD SVG 20010904//EN"
 "http://www.w3.org/TR/2001/REC-SVG-20010904/DTD/svg10.dtd">
<svg version="1.0" xmlns="http://www.w3.org/2000/svg"
 width="1136.000000pt" height="1144.000000pt" viewBox="0 0 1136.000000 1144.000000"
 preserveAspectRatio="xMidYMid meet">

<g transform="translate(0.000000,1144.000000) scale(0.100000,-0.100000)"
fill="#000000" stroke="none">
<path d="M0 5720 l0 -5720 5680 0 5680 0 0 5720 0 5720 -5680 0 -5680 0 0
-5720z m4191 2364 c86 -56 89 -57 259 -43 85 7 171 9 191 5 20 -3 72 -24 118
-46 108 -52 179 -63 364 -58 137 4 161 8 246 36 105 36 138 38 196 15 310
-122 557 -135 770 -39 91 41 94 41 237 -5 51 -16 129 -37 173 -45 446 -85 507
-100 655 -154 107 -39 186 -62 227 -65 17 -2 35 -5 40 -8 10 -6 64 11 100 31
32 18 48 15 120 -19 102 -49 244 -199 320 -339 20 -36 46 -82 59 -102 13 -21
35 -70 48 -110 48 -146 85 -274 92 -313 3 -22 12 -65 20 -96 26 -106 63 -394
79 -619 18 -257 17 -251 56 -385 16 -55 42 -172 59 -260 52 -277 47 -241 81
-550 5 -44 11 -127 14 -185 4 -58 15 -147 27 -197 16 -75 23 -93 38 -93 26 0
39 21 65 102 13 40 27 74 33 76 5 1 17 -13 26 -32 26 -55 66 -61 129 -17 71
48 105 62 160 63 84 2 151 -52 199 -160 34 -76 41 -118 45 -282 6 -216 -23
-383 -125 -730 -138 -465 -277 -718 -441 -796 -51 -24 -60 -25 -100 -15 -59
16 -130 59 -143 87 -8 17 -6 42 6 96 23 102 45 210 62 302 8 44 26 136 40 205
23 111 40 271 28 271 -2 0 -12 -8 -23 -19 -10 -10 -27 -23 -37 -29 -15 -9 -16
-13 -5 -26 9 -11 10 -16 2 -16 -6 0 -10 -3 -9 -7 1 -5 -4 -19 -10 -33 -22 -49
-62 -191 -57 -200 3 -5 1 -11 -4 -15 -14 -8 -41 -65 -41 -86 0 -10 -4 -21 -10
-24 -5 -3 -10 -26 -10 -51 0 -34 -4 -44 -16 -44 -16 0 -64 -47 -64 -63 0 -4
-18 -46 -40 -93 -22 -47 -40 -89 -40 -93 0 -3 -9 -12 -21 -19 -13 -9 -19 -20
-16 -32 3 -11 -1 -21 -11 -25 -8 -3 -12 -8 -9 -12 9 -8 -13 -34 -23 -28 -5 3
-11 -14 -15 -37 -5 -26 -18 -53 -36 -71 -16 -16 -29 -33 -29 -39 0 -5 -13 -30
-30 -55 -16 -24 -30 -55 -30 -68 0 -15 -10 -31 -24 -40 -13 -9 -34 -39 -46
-68 -19 -43 -54 -97 -98 -152 -4 -5 -23 -32 -42 -60 -19 -27 -40 -56 -47 -63
-7 -7 -13 -16 -13 -20 0 -4 -16 -24 -35 -44 -19 -20 -35 -40 -36 -45 0 -4 -40
-44 -89 -88 -48 -44 -88 -86 -89 -92 -1 -7 -7 -13 -15 -13 -8 0 -17 -9 -21
-19 -3 -11 -18 -25 -33 -32 -15 -7 -45 -34 -67 -59 -22 -26 -54 -55 -72 -63
-18 -9 -39 -27 -48 -40 -8 -13 -37 -38 -63 -55 -26 -17 -64 -49 -86 -71 -21
-23 -45 -41 -52 -41 -8 0 -14 -5 -14 -10 0 -6 -26 -29 -58 -53 -62 -45 -72
-53 -116 -91 -15 -14 -37 -28 -47 -31 -11 -4 -19 -11 -19 -16 0 -5 -6 -9 -12
-9 -7 0 -29 -14 -48 -31 -19 -17 -52 -40 -72 -50 -21 -11 -38 -23 -38 -28 0
-5 -12 -15 -28 -22 -32 -16 -81 -50 -191 -131 -60 -44 -83 -56 -101 -51 -19 5
-22 3 -17 -11 5 -14 -5 -22 -47 -42 -29 -13 -61 -33 -71 -44 -10 -11 -27 -20
-38 -20 -11 0 -27 -8 -36 -17 -24 -27 -88 -56 -106 -50 -9 4 -20 -1 -27 -13
-7 -11 -18 -20 -25 -20 -6 0 -33 -10 -60 -21 -102 -45 -210 -79 -250 -79 -24
0 -43 -4 -43 -9 0 -18 -30 -23 -240 -46 -170 -18 -702 -11 -723 9 -7 6 -32 12
-57 13 -97 3 -248 21 -310 37 -152 38 -288 68 -332 73 -26 3 -52 11 -59 19 -6
8 -20 14 -30 14 -10 0 -38 9 -61 19 -24 11 -68 29 -98 41 -30 12 -62 28 -71
36 -8 8 -23 14 -32 14 -9 0 -19 5 -22 10 -4 6 -22 17 -41 25 -19 8 -34 19 -34
24 0 6 -6 11 -13 11 -7 0 -18 9 -25 20 -7 11 -17 20 -23 20 -11 0 -33 18 -99
80 -21 19 -45 34 -54 32 -15 -3 -17 1 -20 38 -1 11 -11 14 -36 13 -31 -3 -33
-1 -18 10 13 11 15 16 6 25 -7 7 -17 12 -24 12 -12 0 -60 51 -80 86 -10 17
-13 17 -29 4 -17 -14 -18 -13 -12 11 5 21 1 28 -25 43 -17 10 -54 43 -83 72
-29 30 -60 54 -69 54 -9 0 -16 4 -16 10 0 5 -15 25 -32 44 -18 19 -62 66 -98
105 -36 39 -71 71 -77 71 -7 0 -19 15 -27 33 -7 18 -27 45 -45 59 -17 15 -31
31 -31 35 0 10 -20 37 -64 86 -34 39 -95 116 -116 147 -8 12 -27 38 -42 58
-16 19 -28 39 -28 43 0 5 -8 17 -17 27 -18 18 -107 155 -132 205 -8 15 -18 27
-23 27 -4 0 -8 7 -8 14 0 8 -13 34 -29 58 -16 24 -50 87 -76 140 -25 54 -50
100 -55 103 -4 3 -11 22 -15 43 -9 56 -40 143 -50 145 -6 1 -9 9 -8 17 1 8 -5
47 -14 85 -14 62 -20 91 -38 173 -7 29 -15 94 -20 155 -2 27 -7 72 -11 100
l-7 52 -8 -35 c-4 -19 -4 -55 1 -80 8 -40 6 -48 -15 -69 -62 -63 -157 45 -220
249 -32 101 -59 326 -106 855 -17 199 -7 496 20 597 24 93 33 110 91 171 39
41 49 47 86 47 27 0 52 -8 72 -22 17 -13 56 -41 86 -63 l56 -40 -4 -130 c-5
-160 -21 -318 -35 -365 -6 -19 -11 -51 -11 -70 0 -19 -4 -41 -9 -48 -12 -20
-25 1 -55 93 -42 128 -88 221 -146 300 -43 58 -96 88 -111 64 -5 -8 -9 -19 -9
-24 0 -24 40 -79 113 -155 90 -93 140 -186 157 -290 6 -36 18 -163 27 -283 9
-119 20 -212 24 -205 4 7 8 28 8 48 -1 19 2 53 4 75 12 94 19 165 16 167 -1 2
3 13 10 26 10 19 10 26 0 38 -9 11 -9 18 -2 22 6 4 13 45 16 92 3 47 11 137
17 199 11 110 18 220 23 346 1 34 8 66 15 74 8 8 11 24 8 37 -12 48 -17 186
-7 179 10 -6 18 74 10 100 -8 27 -10 97 -4 113 14 30 16 55 5 62 -7 4 -7 36 0
101 5 52 10 139 11 194 1 55 4 105 7 110 4 6 8 32 9 59 2 66 38 278 75 451 17
77 39 185 49 240 34 190 126 523 174 630 8 17 28 61 45 100 17 38 34 72 38 75
10 7 54 78 76 120 9 19 31 60 48 90 17 30 36 65 42 76 42 77 277 274 326 274
10 0 47 20 84 44 70 46 86 53 175 80 65 20 78 20 88 2 4 -7 32 -28 62 -46 45
-28 64 -34 125 -36 122 -4 222 13 376 66 174 60 235 63 311 14z"/>
<path d="M3235 6169 c-113 -9 -226 -26 -259 -39 -16 -6 -49 -15 -75 -21 -116
-25 -321 -152 -356 -219 -32 -61 -8 -140 48 -159 23 -9 48 -4 135 25 172 58
330 83 512 84 224 0 345 -23 577 -107 173 -63 242 -59 306 16 73 87 58 212
-31 264 -44 26 -210 83 -323 111 -167 42 -362 59 -534 45z"/>
<path d="M6365 5971 c-162 -17 -353 -64 -405 -101 -36 -26 -45 -42 -54 -98 -7
-48 18 -121 54 -154 73 -68 144 -74 354 -28 154 34 399 56 511 46 152 -13 421
-62 510 -91 22 -8 85 -30 140 -51 198 -73 207 -75 236 -69 16 4 43 20 60 36
29 27 31 34 27 78 -4 41 -11 54 -48 87 -69 62 -151 118 -210 143 -30 13 -73
33 -95 46 -48 26 -176 69 -265 89 -36 8 -92 21 -125 29 -33 8 -89 20 -125 27
-79 14 -455 22 -565 11z"/>
<path d="M3000 5031 c-231 -25 -432 -129 -504 -261 -28 -52 -32 -80 -14 -98
20 -20 30 -15 103 56 41 39 98 81 135 99 97 49 269 88 284 65 2 -4 -11 -39
-30 -77 -48 -98 -67 -210 -54 -325 13 -115 30 -155 72 -169 79 -24 290 -75
363 -87 44 -7 137 -13 206 -13 129 -1 180 10 221 46 16 14 21 14 58 -1 22 -9
63 -16 90 -16 48 0 50 1 70 40 19 37 40 118 55 213 3 22 12 37 20 37 7 0 38
-22 68 -50 30 -27 58 -50 62 -50 16 0 -7 52 -49 112 -119 170 -402 369 -616
432 -146 44 -378 64 -540 47z m368 -143 c22 -19 42 -65 42 -98 0 -50 -27 -90
-76 -112 -56 -24 -98 -13 -150 38 -38 39 -45 84 -19 134 26 51 52 62 125 55
35 -3 70 -11 78 -17z"/>
<path d="M6515 4795 c-105 -18 -135 -26 -230 -65 -200 -80 -398 -228 -441
-329 -8 -20 -21 -47 -27 -61 -13 -27 -11 -70 4 -70 5 0 9 6 9 13 0 41 293 267
317 243 3 -2 -1 -38 -7 -80 -22 -133 3 -319 48 -364 38 -37 283 -68 527 -65
168 2 197 5 250 24 33 12 92 25 130 30 173 18 175 19 200 137 25 123 18 238
-24 345 -17 44 10 44 97 1 104 -51 211 -125 267 -186 49 -52 75 -57 75 -14 0
52 -55 128 -150 207 -135 112 -387 207 -633 239 -106 14 -314 11 -412 -5z
m101 -157 c37 -71 -15 -168 -100 -183 -73 -14 -164 65 -150 130 9 43 18 50 76
63 139 31 153 30 174 -10z"/>
<path d="M9249 4290 c-63 -11 -137 -72 -224 -185 -79 -103 -154 -276 -113
-263 6 2 16 13 22 24 78 141 144 215 265 298 75 51 111 86 111 107 0 22 -16
27 -61 19z"/>
<path d="M1941 3824 c0 -11 3 -14 6 -6 3 7 2 16 -1 19 -3 4 -6 -2 -5 -13z"/>
<path d="M1937 3563 c-10 -9 -9 -185 1 -179 7 4 17 186 9 186 -2 0 -7 -3 -10
-7z"/>
<path d="M4276 3284 c-21 -92 0 -225 49 -309 28 -47 106 -123 167 -161 154
-98 425 -117 604 -43 66 27 91 45 154 108 53 54 79 88 88 117 11 38 17 114 9
114 -2 0 -33 -28 -69 -63 -67 -66 -145 -110 -253 -143 -73 -22 -272 -25 -355
-5 -126 30 -269 123 -322 209 -12 20 -32 75 -44 122 -19 77 -21 82 -28 54z"/>
<path d="M3590 2492 c0 -15 220 -153 284 -179 33 -14 66 -28 71 -33 29 -22
296 -100 415 -121 30 -6 80 -14 110 -19 314 -55 730 -62 1075 -19 165 20 236
37 413 95 221 73 287 136 89 85 -93 -24 -154 -36 -307 -61 -69 -11 -141 -25
-160 -30 -122 -30 -541 -36 -800 -11 -278 26 -336 34 -345 42 -5 5 -26 9 -47
9 -20 0 -47 4 -60 9 -13 5 -48 14 -78 21 -84 18 -193 49 -213 61 -10 5 -78 30
-151 54 -73 25 -167 58 -207 75 -79 32 -89 35 -89 22z"/>
</g>
</svg>
